<?xml version="1.0" encoding="UTF-8"?><svg id="Layer_2" xmlns="http://www.w3.org/2000/svg" viewBox="0 0 469.28 247.48"><defs><style>.cls-1{fill:#022543;}.cls-1,.cls-2,.cls-3{stroke-width:0px;}.cls-2{fill:#0a1b2a;}.cls-3{fill:#006837;}</style></defs><g id="Layer_1-2"><polygon class="cls-2" points=".16 208.79 0 208.37 .31 208.49 .16 208.79"/><path class="cls-3" d="m421.13,126.48v-48.48h48.16c0,26.68-21.8,48.48-48.16,48.48Z"/><path class="cls-3" d="m76.98,48.48V0S28.82,0,28.82,0c0,26.68,21.8,48.48,48.16,48.48Z"/><path class="cls-3" d="m155.98,48.48V0h48.16c0,26.68-21.8,48.48-48.16,48.48Z"/><rect class="cls-1" x="218.98" y=".34" width="48" height="247.14"/><path class="cls-1" d="m333.16,118.48c-2.98-23.87-24.65-42.48-49-42.48v171.48h49V118.48h0Z"/><path class="cls-1" d="m356.98,48.48h0v199h48V0c-26.36,0-48,21.8-48,48.48Z"/><path class="cls-3" d="m421.13,48.48V0h48.16c0,26.68-21.8,48.48-48.16,48.48Z"/><path class="cls-1" d="m140.16,199h0V0h-48v247.48c26.36,0,48-21.8,48-48.48Z"/></g></svg>